<?xml version="1.0" encoding="UTF-8" standalone="no"?>
<!-- Generator: Adobe Illustrator 22.0.0, SVG Export Plug-In . SVG Version: 6.00 Build 0)  -->

<svg
   xmlns:dc="http://purl.org/dc/elements/1.1/"
   xmlns:cc="http://creativecommons.org/ns#"
   xmlns:rdf="http://www.w3.org/1999/02/22-rdf-syntax-ns#"
   xmlns:svg="http://www.w3.org/2000/svg"
   xmlns="http://www.w3.org/2000/svg"
   xmlns:sodipodi="http://sodipodi.sourceforge.net/DTD/sodipodi-0.dtd"
   xmlns:inkscape="http://www.inkscape.org/namespaces/inkscape"
   version="1.1"
   id="Layer_1"
   x="0px"
   y="0px"
   viewBox="0 0 1200 1200"
   style="enable-background:new 0 0 1200 1200;"
   xml:space="preserve"
   sodipodi:docname="top-right-red.svg"
   inkscape:version="0.92.4 (33fec40, 2019-01-16)"><metadata
   id="metadata78"><rdf:RDF><cc:Work
       rdf:about=""><dc:format>image/svg+xml</dc:format><dc:type
         rdf:resource="http://purl.org/dc/dcmitype/StillImage" /></cc:Work></rdf:RDF></metadata><defs
   id="defs76" /><sodipodi:namedview
   pagecolor="#ffffff"
   bordercolor="#666666"
   borderopacity="1"
   objecttolerance="10"
   gridtolerance="10"
   guidetolerance="10"
   inkscape:pageopacity="0"
   inkscape:pageshadow="2"
   inkscape:window-width="1853"
   inkscape:window-height="1016"
   id="namedview74"
   showgrid="false"
   inkscape:zoom="0.695"
   inkscape:cx="361.15108"
   inkscape:cy="600"
   inkscape:window-x="67"
   inkscape:window-y="27"
   inkscape:window-maximized="1"
   inkscape:current-layer="Layer_1" />
<style
   type="text/css"
   id="style64">
	.st0{fill:url(#SVGID_1_);}
</style>
<linearGradient
   id="SVGID_1_"
   gradientUnits="userSpaceOnUse"
   x1="1060.1672"
   y1="-80.7325"
   x2="634.0828"
   y2="657.2675"
   gradientTransform="translate(1.4388489)">
	<stop
   offset="0"
   style="stop-color:#D40500"
   id="stop66" />
	<stop
   offset="1"
   style="stop-color:#FF652A"
   id="stop68" />
</linearGradient>
<path
   class="st0"
   d="m 1204.3165,0 v 984 c 0,0 -122,-247 -148,-418 -26,-171 -96.99995,-341 -468.99995,-315 -152.7,10.7 -252,-38 -324,-251 z"
   id="path71"
   style="opacity:0.73999999;fill:#ffffff;fill-opacity:1"
   inkscape:connector-curvature="0" />
<path
   style="fill:none;stroke-width:1.43884897"
   d="m 1135.5396,676.56929 c -35.2159,-20.28611 -64.5863,-37.40296 -65.2677,-38.03743 -2.0443,-1.90347 -10.7593,-41.66844 -16.8413,-76.84372 -7.6415,-44.19492 -13.0738,-67.40726 -22.4169,-95.78886 -32.86028,-99.81931 -95.58917,-162.20027 -195.09321,-194.01112 -57.96829,-18.53213 -136.72884,-27.0931 -214.1172,-23.27373 -84.43122,4.16695 -107.6609,3.58422 -143.24437,-3.59344 -95.04801,-19.17243 -160.23485,-88.76513 -210.06565,-224.26363 -3.48425,-9.474263 -6.335,-17.7615106 -6.335,-18.4161066 0,-0.6545958 57.99835,-1.1901743 128.88521,-1.1901743 H 519.92869 L 859.02909,196.92108 c 186.50521,107.67351 339.58891,196.25188 340.18581,196.84085 0.597,0.58896 0.9208,72.76043 0.7195,160.38103 l -0.3661,159.31019 z"
   id="path80"
   inkscape:connector-curvature="0" /></svg>