<?xml version="1.0" encoding="UTF-8" standalone="no"?>
<!-- Created with Inkscape (http://www.inkscape.org/) -->

<svg
   xmlns:dc="http://purl.org/dc/elements/1.1/"
   xmlns:cc="http://creativecommons.org/ns#"
   xmlns:rdf="http://www.w3.org/1999/02/22-rdf-syntax-ns#"
   xmlns:svg="http://www.w3.org/2000/svg"
   xmlns="http://www.w3.org/2000/svg"
   xmlns:xlink="http://www.w3.org/1999/xlink"
   xmlns:sodipodi="http://sodipodi.sourceforge.net/DTD/sodipodi-0.dtd"
   xmlns:inkscape="http://www.inkscape.org/namespaces/inkscape"
   width="2000"
   height="900"
   viewBox="0 0 529.16668 238.12501"
   version="1.1"
   id="svg8"
   sodipodi:docname="illustration1.svg"
   inkscape:version="0.92.4 (33fec40, 2019-01-16)">
  <defs
     id="defs2">
    <inkscape:path-effect
       only_selected="false"
       apply_with_weight="true"
       apply_no_weight="true"
       helper_size="0"
       steps="2"
       weight="33.333333"
       is_visible="true"
       id="path-effect4595"
       effect="bspline" />
    <inkscape:path-effect
       only_selected="false"
       apply_with_weight="true"
       apply_no_weight="true"
       helper_size="0"
       steps="2"
       weight="33.333333"
       is_visible="true"
       id="path-effect4589"
       effect="bspline" />
    <inkscape:path-effect
       effect="bspline"
       id="path-effect3751"
       is_visible="true"
       weight="33.333333"
       steps="2"
       helper_size="0"
       apply_no_weight="true"
       apply_with_weight="true"
       only_selected="false" />
    <inkscape:path-effect
       effect="bspline"
       id="path-effect3719"
       is_visible="true"
       weight="33.333333"
       steps="2"
       helper_size="0"
       apply_no_weight="true"
       apply_with_weight="true"
       only_selected="false" />
    <inkscape:path-effect
       effect="bspline"
       id="path-effect3715"
       is_visible="true"
       weight="33.333333"
       steps="2"
       helper_size="0"
       apply_no_weight="true"
       apply_with_weight="true"
       only_selected="false" />
    <linearGradient
       gradientTransform="matrix(0.40016202,0,0,0.35858344,290.00826,101.31497)"
       id="linear-gradient-17"
       x1="459.35001"
       y1="331.38"
       x2="389.13"
       y2="398.17999"
       xlink:href="#linear-gradient" />
    <linearGradient
       id="linear-gradient"
       x1="436.97"
       y1="373.26001"
       x2="479.60999"
       y2="373.26001"
       gradientUnits="userSpaceOnUse">
      <stop
         offset="0"
         stop-opacity="0"
         id="stop5121" />
      <stop
         offset="0.99"
         id="stop5123" />
    </linearGradient>
    <linearGradient
       id="linear-gradient-16"
       x1="331.88"
       y1="310.54001"
       x2="310.48999"
       y2="409.07999"
       xlink:href="#linear-gradient-4" />
    <linearGradient
       id="linear-gradient-4"
       x1="600.52002"
       y1="-208.11"
       x2="48.66"
       y2="397.81"
       gradientUnits="userSpaceOnUse">
      <stop
         offset="0"
         stop-color="#fff"
         stop-opacity="0"
         id="stop5128" />
      <stop
         offset="0.99"
         stop-color="#fff"
         id="stop5130" />
    </linearGradient>
    <linearGradient
       id="linear-gradient-15"
       x1="316.10999"
       y1="372.37"
       x2="401.70001"
       y2="437.41"
       xlink:href="#linear-gradient" />
    <linearGradient
       gradientTransform="matrix(0.40016202,0,0,0.35858344,290.00826,101.31497)"
       id="linear-gradient-14"
       x1="475.69"
       y1="313.82001"
       x2="58.419998"
       y2="710.82001"
       xlink:href="#linear-gradient" />
    <linearGradient
       gradientTransform="matrix(0.40016202,0,0,0.35858344,291.21676,108.76991)"
       id="linear-gradient-13"
       x1="259.81"
       y1="366.97"
       x2="259.81"
       y2="320.29999"
       xlink:href="#linear-gradient-4" />
    <linearGradient
       gradientTransform="matrix(0.40016202,0,0,0.35858344,290.00826,101.31497)"
       id="linear-gradient-12"
       x1="122.62"
       y1="134.69"
       x2="27.73"
       y2="24.879999"
       xlink:href="#linear-gradient" />
    <linearGradient
       gradientTransform="matrix(0.40016202,0,0,0.35858344,290.00826,101.31497)"
       id="linear-gradient-11"
       x1="97.68"
       y1="254.06"
       x2="109.2"
       y2="254.06"
       xlink:href="#linear-gradient-6" />
    <linearGradient
       id="linear-gradient-6"
       x1="122.5"
       y1="103.4"
       x2="128.25999"
       y2="103.4"
       gradientUnits="userSpaceOnUse">
      <stop
         offset="0"
         stop-color="#ecc4d7"
         id="stop5134" />
      <stop
         offset="0.42"
         stop-color="#efd4d1"
         id="stop5136" />
      <stop
         offset="1"
         stop-color="#f2eac9"
         id="stop5138" />
    </linearGradient>
    <linearGradient
       gradientTransform="matrix(0.40016202,0,0,0.35858344,290.00826,101.31497)"
       id="linear-gradient-10"
       x1="67.43"
       y1="249.67999"
       x2="77.970001"
       y2="249.67999"
       xlink:href="#linear-gradient-6" />
    <linearGradient
       gradientTransform="matrix(0.40016202,0,0,0.35858344,290.00826,101.31497)"
       id="linear-gradient-9"
       x1="88.220001"
       y1="211.25999"
       x2="98.739998"
       y2="208.63"
       xlink:href="#linear-gradient" />
    <linearGradient
       gradientTransform="matrix(0.40016202,0,0,0.35858344,290.00826,101.31497)"
       id="linear-gradient-8"
       x1="91.709999"
       y1="125.38"
       x2="102.71"
       y2="125.38"
       xlink:href="#linear-gradient-6" />
    <linearGradient
       gradientTransform="matrix(0.40016202,0,0,0.35858344,290.00826,101.31497)"
       id="linear-gradient-7"
       x1="93.349998"
       y1="162.24001"
       x2="240.32001"
       y2="-25.559999"
       xlink:href="#linear-gradient" />
    <linearGradient
       gradientTransform="matrix(0.40016202,0,0,0.35858344,290.00826,101.31497)"
       id="linear-gradient-5"
       x1="4.0599999"
       y1="-30585.189"
       x2="183.14"
       y2="16602.439"
       xlink:href="#linear-gradient" />
    <linearGradient
       gradientTransform="matrix(0.40016202,0,0,0.35858344,290.00826,101.31497)"
       id="linear-gradient-3"
       x1="71.639999"
       y1="151.77"
       x2="155.53999"
       y2="126.62"
       xlink:href="#linear-gradient" />
    <linearGradient
       gradientTransform="matrix(0.40016202,0,0,0.35858344,290.00826,101.31497)"
       id="linear-gradient-2"
       x1="101.52"
       y1="375.76001"
       x2="464.79999"
       y2="375.76001"
       xlink:href="#linear-gradient" />
    <linearGradient
       gradientTransform="matrix(0.40016202,0,0,0.35858344,290.00826,101.31497)"
       y2="373.26001"
       x2="479.60999"
       y1="373.26001"
       x1="436.97"
       gradientUnits="userSpaceOnUse"
       id="linearGradient5994"
       xlink:href="#linear-gradient"
       inkscape:collect="always" />
    <linearGradient
       gradientTransform="matrix(0.40016202,0,0,0.35858344,291.21676,108.76991)"
       y2="397.81"
       x2="48.66"
       y1="-208.11"
       x1="600.52002"
       gradientUnits="userSpaceOnUse"
       id="linearGradient5996"
       xlink:href="#linear-gradient-4"
       inkscape:collect="always" />
    <linearGradient
       gradientTransform="matrix(0.40016202,0,0,0.35858344,290.00826,101.31497)"
       y2="103.4"
       x2="128.25999"
       y1="103.4"
       x1="122.5"
       gradientUnits="userSpaceOnUse"
       id="linearGradient5998"
       xlink:href="#linear-gradient-6"
       inkscape:collect="always" />
  </defs>
  <sodipodi:namedview
     id="base"
     pagecolor="#ffffff"
     bordercolor="#666666"
     borderopacity="1.0"
     inkscape:pageopacity="0.0"
     inkscape:pageshadow="2"
     inkscape:zoom="0.35"
     inkscape:cx="1472.4227"
     inkscape:cy="746.89813"
     inkscape:document-units="px"
     inkscape:current-layer="layer3"
     showgrid="false"
     inkscape:window-width="960"
     inkscape:window-height="1016"
     inkscape:window-x="0"
     inkscape:window-y="27"
     inkscape:window-maximized="0"
     units="px"
     width="1440mm" />
  <metadata
     id="metadata5">
    <rdf:RDF>
      <cc:Work
         rdf:about="">
        <dc:format>image/svg+xml</dc:format>
        <dc:type
           rdf:resource="http://purl.org/dc/dcmitype/StillImage" />
        <dc:title></dc:title>
      </cc:Work>
    </rdf:RDF>
  </metadata>
  <g
     inkscape:groupmode="layer"
     id="layer3"
     inkscape:label="Layer 3"
     transform="translate(0,-58.874933)">
    <path
       inkscape:connector-curvature="0"
       d="m 304.03796,181.55161 c -6.53063,6.98878 -13.44543,14.96726 -12.77716,24.06812 0.53222,7.21469 5.85036,13.70506 5.77032,20.92334 -0.08,7.21829 -5.60225,13.98476 -4.40176,21.15643 1.33653,8.13984 10.76035,13.17436 19.68795,15.10711 18.84764,4.08068 38.4916,-0.35858 57.81941,-1.72119 14.83802,-1.04349 29.75206,-0.24743 44.60608,0.54862 l 41.73289,2.22322 c 5.60227,0.30122 11.40462,0.57732 16.64274,-1.22276 4.80194,-1.6459 8.67951,-4.89108 12.00487,-8.37294 7.28693,-7.58761 12.75716,-17.46659 11.04847,-27.35632 -2.75711,-15.94261 -22.78523,-26.58538 -23.93369,-42.67143 -0.37615,-5.264 1.26051,-11.06588 -1.9448,-15.48722 -1.26049,-1.73913 -3.14526,-3.0336 -5.10205,-4.13446 -12.19694,-6.84896 -27.46712,-7.01388 -41.86095,-6.9637 l -70.46054,0.23667 c -7.77515,0.0251 -20.86443,-2.27342 -27.69521,1.26939 -3.4574,1.78933 -21.13657,19.00134 -21.13657,22.39712 z"
       style="opacity:0.18000004;isolation:isolate;fill:#68e1fd;stroke-width:0.37880269"
       id="path5156" />
    <path
       inkscape:connector-curvature="0"
       style="opacity:0.1;fill:url(#linearGradient5994);stroke-width:0.37880269"
       d="m 481.86198,231.574 c 0.30013,3.03004 -0.44419,5.61541 -1.6967,7.01748 -1.2525,1.40206 -3.12525,2.277 -5.06204,2.74317 -1.93679,0.46614 -8.22334,1.87897 -10.22414,1.97937 1.94479,-0.54146 9.42781,-2.56745 10.40422,-4.17033 a 23.097352,20.697437 0 0 0 1.07242,-2.26982 c 0.66026,-1.48812 1.52462,-8.45182 2.80112,-9.5957 1.48462,-1.3196 2.56106,2.82565 2.70512,4.29583 z"
       id="path5158" />
    <path
       inkscape:connector-curvature="0"
       style="opacity:0.1;fill:url(#linear-gradient-2);stroke-width:0.37880269"
       d="m 398.34017,239.9792 a 482.51538,432.37992 0 0 0 -53.72577,-1.66384 c -5.09006,0.10047 -11.06047,-0.10398 -13.98165,-3.84041 3.26131,-2.27702 7.69509,-2.5101 11.82478,-2.63559 40.58843,-1.29809 78.23568,-2.39892 118.82411,-3.697 -1.86077,-1.20842 0,-4.15958 -0.37615,-6.19275 4.00161,-1.09725 12.46906,0.60602 15.09811,3.09816 -2.46099,-1.58134 -7.71111,-2.15149 -9.95204,-1.33033 -2.2409,0.82114 -4.05763,2.6284 -2.83715,4.49663 0.36016,0.55221 0.9404,1.02196 1.03644,1.65667 0.16006,1.0578 -1.07644,1.82518 -2.17689,2.23397 -9.69592,3.58582 -21.48469,0.15419 -30.85249,4.39623 a 3.5694453,3.1985643 0 0 0 -1.42458,0.98611 c -1.39257,1.89689 1.87276,3.75795 4.36977,4.13446 a 178.90045,160.31191 0 0 0 27.02695,2.23039 l -30.68842,1.27654 c 0.87634,0.9395 0.43218,2.45989 -0.58825,3.27388 -1.0204,0.81398 -2.42499,1.07574 -3.76953,1.2909 -11.35659,1.73913 -27.4431,1.04705 -36.95896,-5.73733 2.89317,-1.52039 6.10246,-2.69297 9.15172,-3.97669 z"
       id="path5160" />
    <path
       inkscape:connector-curvature="0"
       style="fill:#68e1fd;stroke-width:0.37880269"
       d="m 324.61029,148.84879 -4.40177,4.49665 c -0.76831,0.7817 -1.60066,1.70684 -1.42458,2.73956 a 3.6014583,3.2272511 0 0 0 0.92837,1.54551 15.962464,14.303895 0 0 0 2.82915,2.37023 c 1.4806,-3.61452 2.62507,-7.32586 2.06883,-11.15195 z"
       id="path5162" />
    <path
       inkscape:connector-curvature="0"
       style="fill:url(#linear-gradient-3);stroke-width:0.37880269"
       d="m 324.66632,148.83086 -4.40179,4.49665 c -0.76831,0.78171 -1.60064,1.71044 -1.42457,2.73958 a 3.6014583,3.2272511 0 0 0 0.90837,1.54549 15.974468,14.314652 0 0 0 2.83315,2.36664 c 1.51261,-3.61092 2.64107,-7.31868 2.08484,-11.14836 z"
       id="path5164" />
    <rect
       y="108.76992"
       style="fill:#68e1fd;stroke-width:0.37880269"
       x="328.93198"
       width="132.49765"
       height="119.03536"
       id="rect5166" />
    <rect
       y="108.76992"
       style="fill:url(#linearGradient5996);stroke-width:0.37880269"
       x="328.93198"
       width="132.49765"
       height="119.03536"
       id="rect5168" />
    <rect
       style="fill:#68e1fd;stroke-width:0.3789764"
       x="-188.10184"
       y="355.13666"
       width="108.83426"
       height="0.83706045"
       transform="matrix(0.22084378,-0.97530919,0.98386888,0.17889113,0,0)"
       id="rect5170" />
    <rect
       style="fill:#68e1fd;stroke-width:0.37897843"
       x="-185.96211"
       y="367.80887"
       width="109.14328"
       height="0.83702081"
       transform="matrix(0.22216045,-0.97501012,0.98367088,0.17997665,0,0)"
       id="rect5172" />
    <rect
       style="fill:#68e1fd;stroke-width:0.37880269"
       x="330.62064"
       y="147.76944"
       width="12.845201"
       height="0.75302517"
       id="rect5174" />
    <rect
       style="fill:#68e1fd;stroke-width:0.37880269"
       x="328.59583"
       y="156.75555"
       width="12.845201"
       height="0.75302517"
       id="rect5176" />
    <rect
       style="fill:#68e1fd;stroke-width:0.37880269"
       x="326.56705"
       y="165.73807"
       width="12.845201"
       height="0.75302517"
       id="rect5178" />
    <rect
       style="fill:#68e1fd;stroke-width:0.37880269"
       x="324.53818"
       y="174.72415"
       width="12.845201"
       height="0.75302517"
       id="rect5180" />
    <rect
       style="fill:#68e1fd;stroke-width:0.37880269"
       x="322.50937"
       y="183.71027"
       width="12.845201"
       height="0.75302517"
       id="rect5182" />
    <rect
       style="fill:#68e1fd;stroke-width:0.37880269"
       x="320.48056"
       y="192.69638"
       width="12.845201"
       height="0.75302517"
       id="rect5184" />
    <rect
       style="fill:#68e1fd;stroke-width:0.37880269"
       x="318.45572"
       y="201.68248"
       width="12.845201"
       height="0.75302517"
       id="rect5186" />
    <rect
       style="fill:#68e1fd;stroke-width:0.37880269"
       x="316.42691"
       y="210.66856"
       width="12.845201"
       height="0.75302517"
       id="rect5188" />
    <rect
       style="fill:#68e1fd;stroke-width:0.37880269"
       x="314.3981"
       y="219.65468"
       width="12.845201"
       height="0.75302517"
       id="rect5190" />
    <rect
       style="fill:#68e1fd;stroke-width:0.37880269"
       x="312.36929"
       y="228.64076"
       width="12.845201"
       height="0.75302517"
       id="rect5192" />
    <rect
       style="fill:#68e1fd;stroke-width:0.37880269"
       x="310.34042"
       y="237.62326"
       width="12.845201"
       height="0.75302517"
       id="rect5194" />
    <path
       inkscape:connector-curvature="0"
       style="opacity:0.1;fill:url(#linear-gradient-5);stroke-width:0.37880269"
       d="m 346.76727,227.70488 -1.04842,-85.39307 -0.87636,-0.1506 0.08,6.50112 h -2.34095 c -0.036,-1.11877 -0.20807,-2.20169 -0.64825,-2.9332 -1.23651,-2.06187 -2.80114,0 -3.24932,1.38054 -0.20008,0.60241 -0.51221,1.23711 -1.11646,1.54191 h -2.36095 a 4.0376349,3.618107 0 0 0 -0.84035,-0.0717 2.7691214,2.4813976 0 0 0 -0.51621,0.0682 h -1.20047 l -0.0921,-6.61586 -0.87636,-0.14702 0.11212,8.19722 c -0.0601,0.0861 -0.12006,0.1757 -0.17207,0.26893 -0.53621,0.94308 -0.67227,2.01883 -0.80032,3.07306 -1.12047,10.55312 -0.52822,21.18152 0.0681,31.76691 0.10406,1.83236 0.21208,3.69699 0.91236,5.42178 a 7.6030787,6.8130856 0 0 0 0.55623,1.07576 l 0.5042,36.0448 z m -0.87635,-0.1757 -12.1369,-0.0251 -0.10797,-8.02868 12.1449,0.0251 z m -0.10797,-8.76379 -12.15691,-0.0251 -0.11213,-8.02868 12.16091,0.0288 z m -0.10796,-8.76018 -12.16094,-0.0395 -0.11212,-8.02868 12.17294,0.0288 z m -0.10797,-8.76379 -12.17693,-0.0288 -0.11212,-8.02869 h 0.80034 a 3.3693644,3.0192728 0 0 0 0.34412,0.14345 2.7171002,2.4347816 0 0 0 2.12086,-0.1363 h 8.93161 z m -0.10797,-8.76377 h -8.03524 a 1.6566708,1.4845354 0 0 0 0.21608,-0.55938 c 0.112,-0.74945 -0.35213,-1.45228 -0.66827,-2.15151 -0.75631,-1.67818 -0.68027,-3.52846 -0.23209,-5.3178 l 8.62349,0.0179 z m -0.10796,-8.76378 h -8.40341 c 0.14398,-0.46974 0.31213,-0.93232 0.49221,-1.38413 0.89637,-2.21606 2.11285,-4.34603 2.70508,-6.6338 h 5.11007 z m -0.12006,-8.76379 h -4.92599 c 0.50419,-2.63557 0.10797,-5.37875 0.29612,-8.02868 h 4.53383 z m -0.10797,-8.76377 h -4.44981 a 14.805995,13.267588 0 0 1 0.37216,-1.90049 c 0.26411,-0.90362 0.65627,-1.79292 0.82033,-2.70732 a 15.60632,13.984754 0 0 0 -0.0719,-3.41729 h 3.2333 z m -0.20409,-16.78887 0.0999,8.02868 h -3.28933 a 12.749163,11.424469 0 0 1 -0.0322,-1.16181 c 0.056,-1.38414 0.48421,-2.73599 0.66428,-4.11295 a 29.447923,26.388155 0 0 0 0.21609,-2.75034 z"
       id="path5196" />
    <g
       transform="matrix(0.40016203,0,0,0.35858344,291.21678,108.76991)"
       style="opacity:0.73999999"
       id="g5288">
      <rect
         style="fill:#68e1fd"
         x="130.85001"
         y="13.8"
         width="64.760002"
         height="6.7600002"
         id="rect5198" />
      <rect
         style="fill:#68e1fd"
         x="130.85001"
         y="26.889999"
         width="39.529999"
         height="6.3600001"
         id="rect5200" />
      <rect
         style="opacity:0.54000005;fill:#68e1fd"
         x="186.32001"
         y="26.889999"
         width="124.39"
         height="6.4000001"
         id="rect5202" />
      <rect
         style="fill:#68e1fd"
         x="322.35001"
         y="26.889999"
         width="70.019997"
         height="6.4000001"
         id="rect5204" />
      <rect
         style="fill:#68e1fd"
         x="151.41"
         y="39.98"
         width="54.349998"
         height="6.71"
         id="rect5206" />
      <rect
         style="opacity:0.47999998;fill:#68e1fd"
         x="151.41"
         y="90.290001"
         width="35.279999"
         height="7.5500002"
         id="rect5208" />
      <rect
         style="fill:#68e1fd"
         x="248.83"
         y="113.37"
         width="14.9"
         height="7.52"
         id="rect5210" />
      <rect
         style="fill:#68e1fd"
         x="151.41"
         y="101.55"
         width="35.279999"
         height="7.5500002"
         id="rect5212" />
      <rect
         style="fill:#68e1fd"
         x="151.41"
         y="237.82001"
         width="35.279999"
         height="7.5500002"
         id="rect5214" />
      <rect
         style="fill:#68e1fd"
         x="171.49001"
         y="175.46001"
         width="35.279999"
         height="7.5500002"
         id="rect5216" />
      <rect
         style="opacity:0.47999998;fill:#68e1fd"
         x="171.49001"
         y="187.85001"
         width="35.279999"
         height="7.5500002"
         id="rect5218" />
      <rect
         style="fill:#68e1fd"
         x="171.49001"
         y="211.5"
         width="35.279999"
         height="7.5500002"
         id="rect5220" />
      <rect
         style="fill:#68e1fd"
         x="171.49001"
         y="223.89"
         width="35.279999"
         height="7.5500002"
         id="rect5222" />
      <rect
         style="fill:#68e1fd"
         x="215.42"
         y="187.85001"
         width="35.279999"
         height="7.5500002"
         id="rect5224" />
      <rect
         style="opacity:0.47999998;fill:#68e1fd"
         x="215.42"
         y="223.50999"
         width="35.279999"
         height="7.5500002"
         id="rect5226" />
      <rect
         style="fill:#68e1fd"
         x="198.14999"
         y="237.82001"
         width="114.53"
         height="7.5500002"
         id="rect5228" />
      <rect
         style="fill:#68e1fd"
         x="168.86"
         y="53.07"
         width="64.760002"
         height="6.7600002"
         id="rect5230" />
      <rect
         style="opacity:0.51999996;fill:#68e1fd"
         x="237.85001"
         y="53.07"
         width="54.279999"
         height="7.5100002"
         id="rect5232" />
      <rect
         style="fill:#68e1fd"
         x="168.77"
         y="66.169998"
         width="50.009998"
         height="6.3600001"
         id="rect5234" />
      <rect
         style="opacity:0.47999998;fill:#68e1fd"
         x="168.77"
         y="114.22"
         width="73.120003"
         height="5.9299998"
         id="rect5236" />
      <rect
         style="fill:#68e1fd"
         x="363.23001"
         y="66.169998"
         width="50.009998"
         height="6.3600001"
         id="rect5238" />
      <rect
         style="fill:#68e1fd"
         x="223.58"
         y="66.169998"
         width="103.2"
         height="7.0500002"
         id="rect5240" />
      <rect
         style="fill:#68e1fd"
         x="336.57999"
         y="66.169998"
         width="22.75"
         height="7.1700001"
         id="rect5242" />
      <rect
         style="opacity:0.47999998;fill:#68e1fd"
         x="168.58"
         y="79.260002"
         width="112.76"
         height="6.3099999"
         id="rect5244" />
      <rect
         style="fill:#68e1fd"
         x="168.58"
         y="251.00999"
         width="74.370003"
         height="6.5900002"
         id="rect5246" />
      <rect
         style="fill:#68e1fd"
         x="188.57001"
         y="128.53"
         width="64.760002"
         height="6.7600002"
         id="rect5248" />
      <rect
         style="opacity:0.47999998;fill:#68e1fd"
         x="188.57001"
         y="162.69"
         width="64.760002"
         height="6.7600002"
         id="rect5250" />
      <rect
         style="fill:#68e1fd"
         x="188.57001"
         y="298.97"
         width="39.330002"
         height="6.54"
         id="rect5252" />
      <rect
         style="fill:#68e1fd"
         x="170.84"
         y="311.64001"
         width="26.639999"
         height="6.04"
         id="rect5254" />
      <rect
         style="fill:#68e1fd"
         x="188.57001"
         y="261.79999"
         width="39.93"
         height="6.7600002"
         id="rect5256" />
      <rect
         style="fill:#68e1fd"
         x="236.72"
         y="261.79999"
         width="39.93"
         height="6.7600002"
         id="rect5258" />
      <rect
         style="fill:#68e1fd"
         x="206.88"
         y="274.19"
         width="39.93"
         height="6.7600002"
         id="rect5260" />
      <rect
         style="fill:#68e1fd"
         x="255.02"
         y="274.19"
         width="39.93"
         height="6.7600002"
         id="rect5262" />
      <rect
         style="fill:#68e1fd"
         x="206.88"
         y="286.85999"
         width="54.779999"
         height="6.7600002"
         id="rect5264" />
      <rect
         style="fill:#68e1fd"
         x="270.23001"
         y="286.85999"
         width="14.63"
         height="6.7600002"
         id="rect5266" />
      <rect
         style="fill:#68e1fd"
         x="188.57001"
         y="199.86"
         width="32.389999"
         height="6.46"
         id="rect5268" />
      <rect
         style="fill:#68e1fd"
         x="208.25999"
         y="150.67999"
         width="45.080002"
         height="6.02"
         id="rect5270" />
      <rect
         style="fill:#68e1fd"
         x="265.32001"
         y="150.67999"
         width="45.080002"
         height="6.02"
         id="rect5272" />
      <rect
         style="fill:#68e1fd"
         x="265.32001"
         y="187.10001"
         width="45.080002"
         height="6.02"
         id="rect5274" />
      <rect
         style="fill:#68e1fd"
         x="319.38"
         y="150.67999"
         width="45.080002"
         height="6.02"
         id="rect5276" />
      <rect
         style="fill:#68e1fd"
         x="290.17999"
         y="287.14001"
         width="74.279999"
         height="6.02"
         id="rect5278" />
      <rect
         style="opacity:0.47999998;fill:#68e1fd"
         x="265.16"
         y="128.53"
         width="64.760002"
         height="6.7600002"
         id="rect5280" />
      <rect
         style="fill:#68e1fd"
         x="209.60001"
         y="138.67"
         width="64.760002"
         height="6.7600002"
         id="rect5282" />
      <rect
         style="opacity:0.47999998;fill:#68e1fd"
         x="286.17999"
         y="138.67"
         width="64.760002"
         height="6.7600002"
         id="rect5284" />
      <rect
         style="fill:#68e1fd"
         x="338.07999"
         y="128.53"
         width="64.760002"
         height="6.7600002"
         id="rect5286" />
    </g>
    <path
       inkscape:connector-curvature="0"
       style="fill:url(#linearGradient5998);stroke-width:0.37880269"
       d="m 339.6564,140.042 a 2.0448279,1.8323614 0 0 1 -0.0999,-0.65263 1.0684326,0.95741787 0 0 0 0,-0.28687 1.2004861,1.0757504 0 0 0 -0.26011,-0.35858 1.2925234,1.1582245 0 0 1 -0.18408,-1.07576 c 0.27613,-0.0501 0.37216,-0.24383 0.4682,-0.47691 a 2.4970111,2.2375608 0 0 1 0.33212,-0.68132 0.20808425,0.18646339 0 0 1 0.14807,-0.0826 0.18807616,0.16853422 0 0 1 0.15206,0.0968 c 0.11603,0.20798 -0.036,0.49126 0.12006,0.67414 0.0921,0.10046 0.25212,0.13262 0.36415,0.21156 0.24009,0.16135 0.2521,0.49125 0.46419,0.67414 a 0.85234514,0.76378277 0 0 1 0.13612,0.11838 0.42417176,0.38009847 0 0 1 0.0481,0.23667 1.9127745,1.7140289 0 0 1 -0.35615,0.88569 1.6486675,1.4773637 0 0 0 -0.42418,0.65622 0.91637107,0.82115611 0 0 1 -0.032,0.22948 0.34413935,0.30838178 0 0 1 -0.40015,0.1542 c -0.14807,-0.0323 -0.35215,-0.25459 -0.47618,-0.32273 z"
       id="path5290" />
    <path
       inkscape:connector-curvature="0"
       style="fill:#68e1fd;stroke-width:0.37880269"
       d="m 331.84924,148.70537 a 1.8087325,1.6207973 0 0 0 -0.40017,-0.35859 1.3485461,1.2084263 0 0 0 -0.84434,-0.18647 6.6066752,5.9202128 0 0 0 -0.87236,0.1291 c -1.25651,0.20798 -2.54504,-0.0538 -3.82155,0 -1.43257,0.0754 -1.96879,1.43434 -2.22091,1.97937 a 12.805186,11.47467 0 0 0 -0.93636,3.29539 c -0.0601,0.53788 -0.0761,1.07574 -0.092,1.6208 -0.0719,2.19812 -0.2361,4.37472 -0.14005,6.57283 l 0.16006,3.60735 a 1.0884407,0.97534699 0 0 0 0.18007,0.61318 1.0404213,0.93231696 0 0 0 0.54022,0.2546 c 2.26091,0.58448 4.64589,0.59883 6.99885,0.59883 1.20049,0 2.56902,-0.0645 3.36136,-0.87495 0.87234,-0.89645 0.64425,-2.24831 0.46019,-3.42447 -0.67629,-4.51098 0.69227,-10.19812 -2.37297,-13.82697 z"
       id="path5292" />
    <path
       inkscape:connector-curvature="0"
       style="fill:url(#linear-gradient-7);stroke-width:0.37880269"
       d="m 331.84924,148.70537 a 1.8087325,1.6207973 0 0 0 -0.40017,-0.35859 1.3485461,1.2084263 0 0 0 -0.84434,-0.18647 6.6066752,5.9202128 0 0 0 -0.87236,0.1291 c -1.25651,0.20798 -2.54504,-0.0538 -3.82155,0 -1.43257,0.0754 -1.96879,1.43434 -2.22091,1.97937 a 12.805186,11.47467 0 0 0 -0.93636,3.29539 c -0.0601,0.53788 -0.0761,1.07574 -0.092,1.6208 -0.0719,2.19812 -0.2361,4.37472 -0.14005,6.57283 l 0.16006,3.60735 a 1.0884407,0.97534699 0 0 0 0.18007,0.61318 1.0404213,0.93231696 0 0 0 0.54022,0.2546 c 2.26091,0.58448 4.64589,0.59883 6.99885,0.59883 1.20049,0 2.56902,-0.0645 3.36136,-0.87495 0.87234,-0.89645 0.64425,-2.24831 0.46019,-3.42447 -0.67629,-4.51098 0.69227,-10.19812 -2.37297,-13.82697 z"
       id="path5294" />
    <path
       inkscape:connector-curvature="0"
       style="fill:url(#linear-gradient-8);stroke-width:0.37880269"
       d="m 330.27259,147.05588 a 2.4009722,2.1515008 0 0 0 0.71229,-0.71717 2.0328231,1.821604 0 0 0 0.11603,-0.85701 3.4614015,3.1017467 0 0 0 -0.40015,-1.316 1.8487486,1.6566555 0 0 0 -1.1765,-0.82116 c -0.80032,-0.14701 -1.62465,0.35858 -2.00081,0.99687 a 5.3141519,4.7619884 0 0 0 -0.47618,2.15149 c -0.028,0.92873 -0.82433,2.34873 0.14807,2.67504 1.12445,0.3765 2.00079,-0.71717 2.18888,-1.19768 a 2.3329447,2.0905415 0 0 1 0.88836,-0.91438 z"
       id="path5296" />
    <path
       inkscape:connector-curvature="0"
       style="fill:#3f3d56;stroke-width:0.37880269"
       d="m 330.63275,142.30106 a 1.8967681,1.6996856 0 0 1 -0.30012,0.89647 5.2021065,4.661585 0 0 1 -0.60026,0.82473 2.1488701,1.9255932 0 0 0 -0.40016,0.48767 1.6286595,1.4594348 0 0 0 0.0881,0.93592 c -0.17206,0.0789 -0.33612,-0.27253 -0.49618,-0.17571 a 0.20008103,0.17929173 0 0 0 -0.0601,0.0896 0.71629005,0.64186439 0 0 0 0.17207,0.64186 0.48019444,0.43030015 0 0 1 0.12811,0.13982 c 0.0481,0.11119 -0.056,0.22592 -0.10406,0.33707 -0.12007,0.27252 0.0921,0.60602 -0.068,0.8606 a 0.80032407,0.71716691 0 0 1 -0.6963,0.27253 c -0.46819,0.0288 -0.93637,0.0395 -1.40456,0.0288 a 0.53621714,0.48050184 0 0 1 -0.27612,-0.0501 0.57623333,0.51636017 0 0 1 -0.21208,-0.35858 14.870022,13.324961 0 0 1 -0.40016,-3.15195 1.6806805,1.5060505 0 0 1 0.23211,-0.89645 c 0.14004,-0.16854 0.34412,-0.27969 0.49218,-0.43389 0.14806,-0.15419 0.29212,-0.44822 0.4882,-0.64185 a 2.1808831,1.9542799 0 0 1 1.04443,-0.47334 c 0.7723,-0.18287 2.28492,-0.44465 2.37295,0.66697 z"
       id="path5298" />
    <path
       inkscape:connector-curvature="0"
       style="fill:#3f3d56;stroke-width:0.37880269"
       d="m 322.60949,174.97877 a 9.6038887,8.606003 0 0 1 0.0439,1.63515 8.8875984,7.9641385 0 0 1 -0.32814,1.2873 41.256706,36.969954 0 0 1 -1.90478,4.99507 c -0.55222,1.07576 -1.2285,2.15151 -1.66867,3.27029 a 21.360648,19.141184 0 0 0 -0.87636,4.07708 1.8847631,1.6889281 0 0 0 0.98441,-0.57013 49.972236,44.779902 0 0 0 8.85559,-10.90453 12.657124,11.341994 0 0 0 1.20048,-2.69296 14.529883,13.020165 0 0 0 0.25211,-2.42044 43.409578,38.899133 0 0 0 -0.0881,-5.25325 c -0.0719,-0.60959 -0.23209,-1.29447 -0.80032,-1.61721 a 2.1488701,1.9255932 0 0 0 -0.93637,-0.22591 c -1.09244,-0.0897 -2.20889,0 -3.28534,-0.21515 -0.40016,-0.0717 -1.02041,-0.41595 -1.31653,-0.18645 -0.29612,0.22948 -0.13203,1.35545 -0.14807,1.66382 a 64.674188,57.954258 0 0 0 0.016,7.15732 z"
       id="path5300" />
    <path
       inkscape:connector-curvature="0"
       style="fill:url(#linear-gradient-9);stroke-width:0.37880269"
       d="m 322.60949,174.97877 a 9.6038887,8.606003 0 0 1 0.0439,1.63515 8.8875984,7.9641385 0 0 1 -0.32814,1.2873 41.256706,36.969954 0 0 1 -1.90478,4.99507 c -0.55222,1.07576 -1.2285,2.15151 -1.66867,3.27029 a 21.360648,19.141184 0 0 0 -0.87636,4.07708 1.8847631,1.6889281 0 0 0 0.98441,-0.57013 49.972236,44.779902 0 0 0 8.85559,-10.90453 12.657124,11.341994 0 0 0 1.20048,-2.69296 14.529883,13.020165 0 0 0 0.25211,-2.42044 43.409578,38.899133 0 0 0 -0.0881,-5.25325 c -0.0719,-0.60959 -0.23209,-1.29447 -0.80032,-1.61721 a 2.1488701,1.9255932 0 0 0 -0.93637,-0.22591 c -1.09244,-0.0897 -2.20889,0 -3.28534,-0.21515 -0.40016,-0.0717 -1.02041,-0.41595 -1.31653,-0.18645 -0.29612,0.22948 -0.13203,1.35545 -0.14807,1.66382 a 64.674188,57.954258 0 0 0 0.016,7.15732 z"
       id="path5302" />
    <path
       inkscape:connector-curvature="0"
       style="fill:#3f3d56;stroke-width:0.37880269"
       d="m 330.91685,180.04198 a 19.607939,17.570589 0 0 1 -0.2561,4.10935 l -1.03643,6.96369 a 0.80032407,0.71716691 0 0 0 1.14047,0.24025 2.3449495,2.101299 0 0 0 0.80034,-0.92513 c 1.57262,-2.76827 3.16527,-5.59033 3.7495,-8.64904 a 26.914899,24.118324 0 0 0 0.30012,-4.34603 59.816222,53.601055 0 0 0 -1.39255,-10.85791 0.80032407,0.71716691 0 0 0 -0.24412,-0.44824 0.83233703,0.74585359 0 0 0 -0.58422,-0.0645 l -3.56545,0.40162 c -0.85234,0.0968 -5.01003,-0.0179 -5.01003,-0.0179 0,0 1.44458,3.18423 1.85674,4.17034 1.25252,2.99775 4.24173,6.11025 4.24173,9.42357 z"
       id="path5304" />
    <path
       inkscape:connector-curvature="0"
       style="fill:url(#linear-gradient-10);stroke-width:0.37880269"
       d="m 317.06724,190.78512 a 1.096444,0.98251869 0 0 0 0.29211,0.35861 5.2981453,4.747645 0 0 0 2.92119,1.30523 0.86835161,0.7781261 0 0 0 0.83634,-0.1793 0.64025926,0.57373353 0 0 0 -0.10002,-0.71717 2.2008911,1.972209 0 0 0 -0.71629,-0.41236 2.0928474,1.8753914 0 0 1 -1.16846,-1.02556 c -0.57225,-1.70684 -2.55704,-0.7315 -2.06484,0.67055 z"
       id="path5306" />
    <path
       inkscape:connector-curvature="0"
       style="fill:url(#linear-gradient-11);stroke-width:0.37880269"
       d="m 329.24417,192.64261 a 1.7006887,1.5239798 0 0 0 0.86034,0.62751 c 0.86437,0.35858 1.83676,0.66696 2.77314,0.47332 a 1.1684731,1.0470637 0 0 0 0.70028,-0.35858 0.57623333,0.51636017 0 0 0 -0.0241,-0.67055 c -0.2161,-0.1757 -0.55623,-0.12205 -0.84835,-0.1506 a 1.2004861,1.0757504 0 0 1 -0.84434,-0.45899 c -0.10797,-0.14344 -0.17607,-0.30838 -0.2761,-0.4554 -0.86036,-1.29807 -3.08126,-0.37293 -2.34096,0.99329 z"
       id="path5308" />
    <path
       inkscape:connector-curvature="0"
       style="fill:#3f3d56;stroke-width:0.37880269"
       d="m 316.99922,189.6305 a 0.69628194,0.62393521 0 0 1 0.63625,-0.20081 c 0.33614,0.0717 0.51221,0.4267 0.83234,0.54863 0.14398,0.0538 0.30412,0.0573 0.45218,0.10398 a 2.1968895,1.9686231 0 0 1 0.72029,0.49845 c 0.56824,0.46615 1.38855,0.71717 1.76471,1.30881 a 0.4721912,0.42312847 0 0 1 0.052,0.40881 0.44818148,0.40161347 0 0 1 -0.31212,0.16136 c -0.42818,0.0754 -0.99241,0.21154 -1.39657,0.061 a 14.966061,13.411021 0 0 1 -2.02482,-0.87494 c -0.35615,-0.19365 -0.61226,-0.71717 -0.86835,-1.02915 -0.31215,-0.37293 -0.21209,-0.65621 0.14398,-0.9861 z"
       id="path5310" />
    <path
       inkscape:connector-curvature="0"
       style="fill:#3f3d56;stroke-width:0.37880269"
       d="m 329.30019,191.54173 c -0.10796,-0.0395 -0.24009,-0.0896 -0.32412,-0.0179 a 0.18407454,0.16494838 0 0 0 -0.0439,0.0573 1.2885217,1.1546387 0 0 0 0.36415,1.30166 4.6538845,4.1703257 0 0 0 1.38856,0.71717 5.8983884,5.2855201 0 0 0 1.60064,0.50203 1.5526286,1.3913037 0 0 0 1.50062,-0.50203 0.80032407,0.71716691 0 0 0 0.14006,-0.51277 c -0.084,-0.39443 -0.58425,-0.56656 -1.00041,-0.71716 -0.52821,-0.18647 -0.9884,-0.52712 -1.53262,-0.67772 -0.6963,-0.20441 -1.4406,0.0896 -2.09286,-0.15062 z"
       id="path5312" />
    <path
       inkscape:connector-curvature="0"
       style="fill:#68e1fd;stroke-width:0.37880269"
       d="m 331.81721,148.47587 3.14528,-1.40206 a 5.7103124,5.116986 0 0 0 1.11646,-0.59524 c 1.86876,-1.36262 1.76471,-3.87987 2.7331,-5.85567 a 0.68027546,0.60959188 0 0 1 0.27611,-0.32273 0.71228841,0.63827855 0 0 1 0.35614,-0.0216 l 1.26852,0.1363 -1.0124,6.67322 a 7.0828681,6.3469272 0 0 1 -0.35215,1.43435 5.8743786,5.2640052 0 0 1 -0.57624,0.93231 17.60713,15.777673 0 0 1 -4.55783,4.17749 1.6646742,1.4917073 0 0 1 -0.64028,0.28689 1.2284974,1.1008512 0 0 1 -0.8003,-0.13264 c -0.86837,-0.4052 -1.2285,-1.34469 -1.39658,-2.20888 a 5.1700936,4.6328983 0 0 1 0.44017,-3.10174 z"
       id="path5314" />
    <path
       inkscape:connector-curvature="0"
       style="fill:url(#linear-gradient-12);stroke-width:0.37880269"
       d="m 331.81721,148.47587 3.14528,-1.40206 a 5.7103124,5.116986 0 0 0 1.11646,-0.59524 c 1.86876,-1.36262 1.76471,-3.87987 2.7331,-5.85567 a 0.68027546,0.60959188 0 0 1 0.27611,-0.32273 0.71228841,0.63827855 0 0 1 0.35614,-0.0216 l 1.26852,0.1363 -1.0124,6.67322 a 7.0828681,6.3469272 0 0 1 -0.35215,1.43435 5.8743786,5.2640052 0 0 1 -0.57624,0.93231 17.60713,15.777673 0 0 1 -4.55783,4.17749 1.6646742,1.4917073 0 0 1 -0.64028,0.28689 1.2284974,1.1008512 0 0 1 -0.8003,-0.13264 c -0.86837,-0.4052 -1.2285,-1.34469 -1.39658,-2.20888 a 5.1700936,4.6328983 0 0 1 0.44017,-3.10174 z"
       id="path5316" />
    <rect
       style="fill:#68e1fd;stroke-width:0.37880269"
       x="328.93198"
       y="227.80527"
       width="132.49765"
       height="6.6624808"
       id="rect5318" />
    <rect
       style="fill:url(#linear-gradient-13);stroke-width:0.37880269"
       x="328.93198"
       y="229.01729"
       width="132.49765"
       height="5.4504681"
       id="rect5320" />
    <path
       inkscape:connector-curvature="0"
       style="fill:#68e1fd;stroke-width:0.37880269"
       d="m 480.63748,231.99354 c -0.58424,2.43837 -2.18089,5.05604 -5.13409,7.27924 -5.41819,4.08068 -12.42502,5.1385 -17.35101,5.31062 -0.60825,0.0216 -1.20049,0.0323 -1.81674,0.0323 -4.40179,0 -8.80358,-0.51995 -13.0613,-1.02554 l -3.01721,-0.35858 c -5.10207,-0.57017 -10.98044,-1.03991 -16.16656,0.59883 l -0.45617,-1.16181 -0.47619,-1.20484 c 5.75833,-1.82163 12.02486,-1.32677 17.44305,-0.71717 1.01242,0.11119 2.02483,0.23308 3.04123,0.35857 4.72992,0.5594 9.62389,1.14031 14.40583,0.97535 4.48582,-0.15777 10.84841,-1.10444 15.65835,-4.72613 1.91678,-1.43432 3.60146,-3.5428 4.19771,-5.77318 a 7.2389313,6.4867748 0 0 0 -0.10004,-3.55716 6.7067158,6.0098588 0 0 0 -0.71629,-1.36261 c -1.36055,-1.9256 -3.80554,-3.16272 -5.89838,-3.71493 -3.10926,-0.82114 -6.50265,-0.71715 -9.79197,-0.61316 h -0.12006 l -0.044,-1.10444 -0.056,-1.40208 c 3.37736,-0.11118 7.2029,-0.23666 10.80437,0.71717 4.18969,1.10444 7.36298,3.61452 8.48343,6.7091 a 10.296169,9.2263526 0 0 1 0.17206,4.74047 z"
       id="path5322" />
    <path
       inkscape:connector-curvature="0"
       style="fill:url(#linear-gradient-14);stroke-width:0.37880269"
       d="m 480.69349,230.63092 c -0.2401,2.80771 -1.82873,6.03496 -5.35817,8.69566 -5.41818,4.07709 -12.42902,5.13848 -17.35503,5.30703 -0.60425,0.0216 -1.20048,0.0323 -1.81671,0.0323 -4.40179,0 -8.80358,-0.51995 -13.05731,-1.02554 l -3.0212,-0.35858 c -5.10209,-0.57013 -10.98046,-1.03989 -16.16256,0.59884 l -0.93237,-2.36666 c 0.23209,-0.0717 0.46419,-0.14343 0.70027,-0.20797 l 0.4562,1.16181 c 5.20211,-1.63873 11.06449,-1.16898 16.16653,-0.59883 l 3.01723,0.35858 c 4.26172,0.50559 8.65151,1.02556 13.0613,1.02556 0.60423,0 1.20047,0 1.81672,-0.0323 4.926,-0.17212 11.93283,-1.22995 17.35103,-5.31062 2.9532,-2.22322 4.54984,-4.84089 5.13407,-7.27925 z"
       id="path5324" />
    <polygon
       transform="matrix(0.40016203,0,0,0.35858344,291.21678,108.76991)"
       style="fill:#68e1fd"
       points="296.04,372.88 303.17,337.21 350.47,348.01 341.46,389.4 310.16,404.41 267.27,385.74 "
       id="polygon5326" />
    <polygon
       transform="matrix(0.40016203,0,0,0.35858344,291.21678,108.76991)"
       style="fill:url(#linear-gradient-15)"
       points="296.04,372.88 303.17,337.21 350.47,348.01 341.46,389.4 310.16,404.41 267.27,385.74 "
       id="polygon5328" />
    <polygon
       transform="matrix(0.40016203,0,0,0.35858344,291.21678,108.76991)"
       style="fill:#68e1fd"
       points="292.94,372.03 300.07,336.37 347.37,347.16 338.36,388.55 307.67,403.48 264.78,384.8 "
       id="polygon5330" />
    <polygon
       transform="matrix(0.40016203,0,0,0.35858344,291.21678,108.76991)"
       style="fill:#68e1fd"
       points="335.55,383.77 343.15,350.26 305.14,342.1 298.94,372.22 "
       id="polygon5332" />
    <polygon
       transform="matrix(0.40016203,0,0,0.35858344,291.21678,108.76991)"
       style="fill:url(#linear-gradient-16)"
       points="335.55,383.77 343.15,350.26 305.14,342.1 298.94,372.22 "
       id="polygon5334" />
    <path
       inkscape:connector-curvature="0"
       style="fill:url(#linear-gradient-17);stroke-width:0.37880269"
       d="m 477.50821,226.72955 -0.42418,-0.0717 c -1.36055,-1.92562 -3.80553,-3.16272 -5.89838,-3.71495 -3.10926,-0.82114 -6.61067,-0.71715 -9.90001,-0.60958 l -0.036,-1.20484 c 0,0 7.2029,-0.35858 11.46863,1.47735 2.7051,1.169 4.78994,4.12372 4.78994,4.12372 z"
       id="path5336" />
  </g>
  <g
     inkscape:groupmode="layer"
     id="layer2"
     inkscape:label="Layer 2"
     transform="translate(0,-58.874933)">
    <path
       style="fill:#cfeaea;fill-opacity:0.97647059;stroke:none;stroke-width:0.26458332px;stroke-linecap:butt;stroke-linejoin:miter;stroke-opacity:1"
       inkscape:path-effect="#path-effect3751"
       inkscape:original-d="m 126.46993,-35.285575 c -9.97902,24.475024 -19.95814,48.950236 -29.937461,73.425852 -21.048948,3.135855 -42.09738,6.271896 -63.147166,9.408403 0.573635,20.128185 1.147088,40.255388 1.720419,60.38374 -20.610699,8.36007 -41.2210008,16.7202 -61.832072,25.08087 -9.234032,-20.42955 -18.467968,-40.858277 -27.702222,-61.287101 10.864102,-36.443599 21.728163,-72.8872649 32.592008,-109.330415 25.673817,-0.346495 51.347495,-0.692705 77.021087,-1.03863 23.76199,1.11881 47.523727,2.237901 71.285407,3.357281 z"
       transform="matrix(1.2684468,0.29794947,-0.27505775,1.0789699,14.121065,45.130712)"
       d="m 109.59956,-23.607612 c 6.89133,12.797051 -3.0878,37.272262 -18.601899,51.078132 -15.514102,13.80587 -36.562534,16.941911 -46.800705,28.57413 -10.238172,11.632219 -9.664719,31.759422 -19.683287,46.00373 -10.018568,14.2443 -30.6288692,22.60443 -45.551574,16.56995 -14.922706,-6.03449 -24.156641,-26.463214 -23.341631,-54.899485 0.81501,-28.436272 11.67907,-64.8799378 29.947932,-83.27461 18.2688608,-18.394673 43.942539,-18.740882 68.660321,-18.354436 24.717782,0.386447 48.479523,1.505537 55.370843,14.302589 z"
       id="path3749"
       inkscape:connector-curvature="0"
       sodipodi:nodetypes="ccccccccc" />
  </g>
  <g
     inkscape:label="Layer 1"
     inkscape:groupmode="layer"
     id="layer1"
     transform="translate(0,-58.874933)">
    <path
       style="fill:#e7f6fd;fill-opacity:1;stroke:#def6fd;stroke-width:0.26458332px;stroke-linecap:butt;stroke-linejoin:miter;stroke-opacity:1"
       d="M -10.192033,102.06627 C -1.2447613,101.01642 11.855885,90.403246 17.522462,80.224881 23.189039,70.046516 21.421885,60.302933 27.33208,52.023141 33.242275,43.74335 46.829723,36.927211 61.274123,27.727232 75.718524,18.527253 91.020302,6.9432368 95.668314,-4.9091091 100.31633,-16.761455 94.310662,-28.882475 73.945505,-30.643625 53.580348,-32.404774 18.852191,-23.806434 -0.65326792,-2.624459 -20.158727,18.557516 -24.442423,52.323119 -24.187562,73.462952 c 0.25486,21.139832 5.048257,29.653168 13.995529,28.603318 z"
       id="path3713"
       inkscape:connector-curvature="0"
       inkscape:path-effect="#path-effect3715"
       inkscape:original-d="M -14.345698,111.62983 C -1.2448426,101.01632 11.855803,90.403145 24.956232,79.790314 23.189231,70.046481 21.422077,60.302898 19.654762,50.559522 33.24219,43.74318 46.829638,36.927041 60.416686,30.111315 75.71844,18.527143 91.020218,6.9431262 106.32189,-4.640636 100.31656,-16.761571 94.310894,-28.88259 88.30555,-41.002383 53.58029,-32.40501 18.852133,-23.806669 -15.875,-15.208333 c -4.2835,33.765878 -8.567196,67.531481 -12.85119,101.297619 4.793721,8.513367 9.587117,17.026704 14.380492,25.540544 z"
       transform="matrix(1.2684468,0.29794947,-0.27505775,1.0789699,14.121065,45.130712)"
       sodipodi:nodetypes="ccccccccc" />
  </g>
</svg>
